<svg width="17" height="18" viewBox="0 0 17 18" fill="none" xmlns="http://www.w3.org/2000/svg">
<path d="M8.66836 17.1366C6.45436 17.1366 6.19336 17.1249 5.32936 17.0871C4.65559 17.065 3.99054 16.928 3.36286 16.6821C2.82572 16.4731 2.33792 16.1546 1.93044 15.747C1.52295 15.3393 1.20469 14.8514 0.995859 14.3142C0.759435 13.6842 0.631915 13.0186 0.618759 12.3459C0.568359 11.4837 0.568359 11.2011 0.568359 9.00421C0.568359 6.78391 0.580059 6.52471 0.618759 5.66521C0.632203 4.99337 0.759718 4.32871 0.995859 3.69961C1.20445 3.16171 1.52293 2.67323 1.93095 2.26535C2.33898 1.85748 2.82758 1.53919 3.36556 1.33081C3.99434 1.09339 4.65917 0.965535 5.33116 0.952805C6.19066 0.904205 6.47326 0.904205 8.66836 0.904205C10.9004 0.904205 11.1569 0.915905 12.0074 0.952805C12.6806 0.965405 13.3484 1.09321 13.9784 1.33081C14.5162 1.53943 15.0047 1.85781 15.4127 2.26565C15.8207 2.67349 16.1392 3.16185 16.3481 3.69961C16.5884 4.33861 16.7171 5.01361 16.727 5.69491C16.7774 6.55711 16.7774 6.83881 16.7774 9.03481C16.7774 11.2308 16.7648 11.5188 16.727 12.3711C16.7135 13.0445 16.5857 13.7107 16.349 14.3412C16.1396 14.8788 15.8207 15.367 15.4126 15.7748C15.0045 16.1826 14.5161 16.5011 13.9784 16.71C13.3484 16.9458 12.6833 17.0736 12.011 17.0871C11.1515 17.1366 10.8698 17.1366 8.66836 17.1366ZM8.63776 2.32891C6.43636 2.32891 6.20776 2.33971 5.34826 2.37841C4.83494 2.38512 4.32658 2.47979 3.84526 2.65831C3.4942 2.79287 3.17523 2.9995 2.90891 3.26489C2.6426 3.53027 2.43485 3.84852 2.29906 4.19911C2.11906 4.68511 2.02456 5.19901 2.01916 5.71741C1.97146 6.58951 1.97146 6.81811 1.97146 9.00421C1.97146 11.1642 1.97956 11.4261 2.01916 12.2928C2.02726 12.8058 2.12176 13.3143 2.29906 13.7958C2.57446 14.5041 3.13606 15.0639 3.84616 15.3357C4.32686 15.5153 4.83512 15.6101 5.34826 15.6156C6.21946 15.666 6.44896 15.666 8.63776 15.666C10.8455 15.666 11.0741 15.6552 11.9264 15.6156C12.4397 15.6094 12.9482 15.5147 13.4294 15.3357C13.7785 15.2001 14.0957 14.9933 14.3607 14.7285C14.6256 14.4637 14.8326 14.1467 14.9684 13.7976C15.1484 13.3116 15.2429 12.7968 15.2483 12.2784H15.2582C15.2969 11.418 15.2969 11.1885 15.2969 8.98981C15.2969 6.79111 15.287 6.55981 15.2483 5.70031C15.2401 5.18772 15.1455 4.68018 14.9684 4.19911C14.8329 3.8495 14.6261 3.53194 14.3611 3.26666C14.0961 3.00138 13.7788 2.7942 13.4294 2.65831C12.9479 2.47831 12.4394 2.38471 11.9264 2.37841C11.0561 2.32891 10.8284 2.32891 8.63776 2.32891ZM8.66836 13.1613C7.84537 13.1618 7.04072 12.9183 6.35616 12.4615C5.6716 12.0047 5.13789 11.3551 4.82254 10.5949C4.50718 9.83475 4.42435 8.99813 4.58451 8.19088C4.74467 7.38363 5.14064 6.64201 5.72233 6.05982C6.30401 5.47763 7.04529 5.08102 7.8524 4.92016C8.65951 4.7593 9.4962 4.84141 10.2566 5.1561C11.0171 5.4708 11.6671 6.00395 12.1245 6.68811C12.5819 7.37227 12.8262 8.17672 12.8264 8.99971C12.8249 10.1024 12.3865 11.1595 11.6072 11.9396C10.8278 12.7196 9.77102 13.1589 8.66836 13.1613ZM8.66836 6.29791C8.13435 6.29791 7.61233 6.45626 7.16832 6.75294C6.72431 7.04962 6.37824 7.4713 6.17388 7.96466C5.96953 8.45802 5.91606 9.0009 6.02024 9.52465C6.12442 10.0484 6.38157 10.5295 6.75917 10.9071C7.13677 11.2847 7.61787 11.5418 8.14162 11.646C8.66536 11.7502 9.20824 11.6967 9.7016 11.4924C10.195 11.288 10.6166 10.942 10.9133 10.4979C11.21 10.0539 11.3684 9.53192 11.3684 8.99791C11.3667 8.28233 11.0817 7.59654 10.5757 7.09056C10.0697 6.58457 9.38393 6.29957 8.66836 6.29791ZM12.9884 5.65621C12.861 5.65573 12.7349 5.63017 12.6174 5.58098C12.4998 5.53178 12.3931 5.45992 12.3034 5.36949C12.1221 5.18687 12.0208 4.93972 12.0218 4.68241C12.0227 4.42509 12.1258 4.1787 12.3085 3.99742C12.4911 3.81615 12.7382 3.71485 12.9956 3.71581C13.2529 3.71676 13.4993 3.81989 13.6805 4.00252C13.8618 4.18514 13.9631 4.43229 13.9622 4.68961C13.9612 4.94692 13.8581 5.19331 13.6755 5.37459C13.4928 5.55586 13.2457 5.65716 12.9884 5.65621Z" fill="#D9904E"/>
</svg>
