<svg width="21" height="24" viewBox="0 0 21 24" fill="none" xmlns="http://www.w3.org/2000/svg">
<path d="M15.3465 1.83665L14.8157 0.999756H11.6037V8.5373L11.5927 15.8998C11.5982 15.9545 11.6037 16.0147 11.6037 16.0694C11.6037 17.9127 10.1044 19.417 8.25483 19.417C6.4053 19.417 4.90597 17.9182 4.90597 16.0694C4.90597 14.226 6.4053 12.7218 8.25483 12.7218C8.63787 12.7218 9.00996 12.7929 9.3547 12.9132V9.23745C8.99902 9.17728 8.63239 9.14446 8.25483 9.14446C4.44085 9.14993 1.33276 12.2568 1.33276 16.0748C1.33276 19.8928 4.44085 22.9998 8.2603 22.9998C12.0797 22.9998 15.1878 19.8928 15.1878 16.0748V7.31751C16.5722 8.7014 18.3616 10.0525 20.3424 10.4846V6.72676C18.192 5.77499 16.0524 2.96346 15.3465 1.83665Z" stroke="#D9904E" stroke-width="1.25714"/>
</svg>
